<svg xmlns="http://www.w3.org/2000/svg" width="1919" height="1259" viewBox="0 0 1919 1259">
  <defs>
    <style>
      .cls-1 {
        fill-rule: evenodd;
      }
    </style>
  </defs>
  <path id="Color_Fill_1" data-name="Color Fill 1" class="cls-1" d="M0,0H1919V797l-173-4c16.12-44.764,17.5-54.57,1-96l-6-16q-16.005-5.5-32-11c-7.55-2.845-19.73-12.034-30-10l-60,22-9-6q1.005-28,2-56h-2c-30.34-15.906-129.95-14-177-14H1130l-94,10q-1.005,46-2,92,7.995,44.5,16,89l-92-4-197,5-164,1-208,1-102-3-69-2c-69.942-10.484-145.363-1.963-218-2V0ZM1693,690h3q19.995,19,40,38c0.72,43.591-13.99,39.187-26,65l-110,2v-3q2.505-13.5,5-27c16.54-6.972,21.56-16.294,26-36q1.005-6.5,2-13l27-24Z"/>
</svg>
